<svg xmlns="http://www.w3.org/2000/svg" viewBox="0 0 208.63 155.53"><defs><style>.cls-1{fill:#010101;}.cls-2{fill:none;stroke:#010101;stroke-linecap:round;stroke-width:3px;}.cls-3{fill:#fff;}.cls-4{fill:#d7df28;}</style></defs><g id="Layer_2" data-name="Layer 2"><g id="Layer_1-2" data-name="Layer 1"><path class="cls-1" d="M21.3,25.43h9.38v38.7H21.3Zm41.1-.9a14.1,14.1,0,0,1,10.2,3.75,12.62,12.62,0,0,1,4,9.6V64.13H67.2V38.4a4.78,4.78,0,0,0-2.1-4,7.35,7.35,0,0,0-4.65-1.65,7.84,7.84,0,0,0-4.8,1.5,4.72,4.72,0,0,0-2,4.12V64.13H44.25V38.4a4.73,4.73,0,0,0-2-4.12,7.79,7.79,0,0,0-4.79-1.5,7.33,7.33,0,0,0-4.65,1.65,4.75,4.75,0,0,0-2.1,4q0-6.67,2.47-10a8.85,8.85,0,0,1,6.23-3.83,10.56,10.56,0,0,1,6.67,1.5,12.41,12.41,0,0,1,4.8,5.1,9.84,9.84,0,0,1,4.65-4.72A13.92,13.92,0,0,1,62.4,24.53Zm41.68-.08a21.42,21.42,0,0,1,4.35.45,19.09,19.09,0,0,1,4.28,1.28,13.8,13.8,0,0,1,3.67,2.1A9.44,9.44,0,0,1,119,31.43a8.19,8.19,0,0,1,1,4V64.05h-9.3V36.38q0,5.55-1.65,7.72a5.29,5.29,0,0,1-4.5,2.1h-2.1a9.76,9.76,0,0,0-2.77.38A6,6,0,0,0,97.11,48a4.43,4.43,0,0,0-1.35,3,4.82,4.82,0,0,0,.52,3,6.33,6.33,0,0,0,2.4,2.33,7.7,7.7,0,0,0,3.75.9,9.73,9.73,0,0,0,7-3.23,4.67,4.67,0,0,0,1.2-3.07q0,6.68-2.62,10.35A8.76,8.76,0,0,1,100.78,65q-6.68.15-10.57-3.75a12.75,12.75,0,0,1-3.83-9.08,11.54,11.54,0,0,1,4.2-9.3,15.46,15.46,0,0,1,10.28-3.52h5.85a4.7,4.7,0,0,0,2.85-.83,2.44,2.44,0,0,0,1.12-2.17,4.42,4.42,0,0,0-1-2.48,4.28,4.28,0,0,0-2.18-1.42,10,10,0,0,0-3.45-.53,6.83,6.83,0,0,0-3.6,1.05,5.09,5.09,0,0,0-2.25,2.48H88.86a12.4,12.4,0,0,1,5.47-8.33A17.87,17.87,0,0,1,104.08,24.45Zm45.25.08a15.42,15.42,0,0,1,5.17.9v8.7a12.15,12.15,0,0,0-5.17-.9,8.8,8.8,0,0,0-6.08,2,6.54,6.54,0,0,0-2.1,5V64.13h-9.37V25.43h9.37V39.75q0-6.9,2.48-11T149.33,24.53Zm23.48,39.6h-9.38V25.43h9.38Zm-.23-44.48a7.5,7.5,0,0,1-4.5,1.35,7.36,7.36,0,0,1-4.42-1.35,4.15,4.15,0,0,1-1.8-3.3,4,4,0,0,1,1.8-3.3,7.09,7.09,0,0,1,4.42-1.42,7.22,7.22,0,0,1,4.5,1.42,4,4,0,0,1,1.88,3.3A4.11,4.11,0,0,1,172.58,19.65ZM37.2,95.45a21.42,21.42,0,0,1,4.35.45,18.86,18.86,0,0,1,4.27,1.28,13.86,13.86,0,0,1,3.68,2.1,9.56,9.56,0,0,1,2.63,3.15,8.3,8.3,0,0,1,1,4v28.65H43.8V107.38q0,5.55-1.65,7.72a5.29,5.29,0,0,1-4.5,2.1h-2.1a9.71,9.71,0,0,0-2.77.38A5.92,5.92,0,0,0,30.23,119a4.48,4.48,0,0,0-1.36,3,4.9,4.9,0,0,0,.53,3,6.33,6.33,0,0,0,2.4,2.33,7.7,7.7,0,0,0,3.75.9A9.73,9.73,0,0,0,42.6,125a4.67,4.67,0,0,0,1.2-3.07q0,6.67-2.62,10.35A8.77,8.77,0,0,1,33.9,136q-6.67.15-10.57-3.75a12.75,12.75,0,0,1-3.83-9.08,11.54,11.54,0,0,1,4.2-9.3A15.46,15.46,0,0,1,34,110.38h5.84a4.73,4.73,0,0,0,2.86-.83,2.46,2.46,0,0,0,1.12-2.17,4.36,4.36,0,0,0-1-2.48,4.25,4.25,0,0,0-2.17-1.42A10,10,0,0,0,37.2,103a6.83,6.83,0,0,0-3.6,1,5.09,5.09,0,0,0-2.25,2.48H22a12.41,12.41,0,0,1,5.48-8.33A17.87,17.87,0,0,1,37.2,95.45Zm45.69.15a13.36,13.36,0,0,1,4.2.23,14.06,14.06,0,0,1,4.35,1.5,17.4,17.4,0,0,1,3.83,2.77,10.67,10.67,0,0,1,2.7,4.05,13,13,0,0,1,1,5.25v25.73h-9.3v-24.9a5.75,5.75,0,0,0-2.18-4.5,7.83,7.83,0,0,0-5.55-2,8.74,8.74,0,0,0-4,.9,6.91,6.91,0,0,0-2.78,2.4,5.68,5.68,0,0,0-1,3.15q0-6.3,2.1-10.13A8.44,8.44,0,0,1,82.89,95.6Zm-18,.83h9.38v38.7H64.89Zm63.72-.83a13.36,13.36,0,0,1,4.2.23,14.06,14.06,0,0,1,4.35,1.5A17.4,17.4,0,0,1,141,100.1a10.67,10.67,0,0,1,2.7,4.05,13,13,0,0,1,1.05,5.25v25.73h-9.3v-24.9a5.75,5.75,0,0,0-2.18-4.5,7.83,7.83,0,0,0-5.55-2,8.74,8.74,0,0,0-4,.9,6.91,6.91,0,0,0-2.78,2.4,5.68,5.68,0,0,0-1,3.15q0-6.3,2.1-10.13A8.44,8.44,0,0,1,128.61,95.6Zm-18,.83H120v38.7h-9.38Zm61.62-1a21.42,21.42,0,0,1,4.35.45,19,19,0,0,1,4.27,1.28,13.86,13.86,0,0,1,3.68,2.1,9.41,9.41,0,0,1,2.62,3.15,8.19,8.19,0,0,1,1,4v28.65h-9.3V107.38q0,5.55-1.65,7.72a5.29,5.29,0,0,1-4.5,2.1h-2.1a9.83,9.83,0,0,0-2.78.38,6,6,0,0,0-2.55,1.42,4.43,4.43,0,0,0-1.35,3,4.83,4.83,0,0,0,.53,3,6.33,6.33,0,0,0,2.4,2.33,7.7,7.7,0,0,0,3.75.9,9.73,9.73,0,0,0,7-3.23,4.67,4.67,0,0,0,1.2-3.07q0,6.67-2.63,10.35a8.74,8.74,0,0,1-7.27,3.75q-6.68.15-10.58-3.75a12.74,12.74,0,0,1-3.82-9.08,11.54,11.54,0,0,1,4.2-9.3A15.43,15.43,0,0,1,169,110.38h5.85a4.7,4.7,0,0,0,2.85-.83,2.45,2.45,0,0,0,1.13-2.17,4.43,4.43,0,0,0-1-2.48,4.25,4.25,0,0,0-2.17-1.42,10,10,0,0,0-3.45-.53,6.83,6.83,0,0,0-3.6,1,5.09,5.09,0,0,0-2.25,2.48H157a12.41,12.41,0,0,1,5.48-8.33A17.87,17.87,0,0,1,172.23,95.45Z"/><path class="cls-2" d="M207.13,118v36h-36"/><path class="cls-2" d="M1.5,39V3h36"/><path class="cls-3" d="M160.87,24.56l-1.5-12.5,17.5-4-2,16.5Z"/><path class="cls-4" d="M169,7.94c4.39-10.59-6.09-10.59-1.7,0-4.39-10.59-11.8-3.18-1.21,1.21-10.59-4.39-10.59,6.09,0,1.7-10.59,4.39-3.18,11.8,1.21,1.21-4.39,10.59,6.09,10.59,1.7,0,4.39,10.59,11.8,3.18,1.21-1.21,10.59,4.39,10.59-6.09,0-1.7C180.77,4.76,173.36-2.65,169,7.94Z"/></g></g></svg>